# xmcd
#
# Track frame offsets:
#	150
#	14593
#	25892
#	38115
#	51722
#	69152
#	77299
#	90116
#	102639
#	114723
#	127040
#	137207
#	143221
#	152847
#	160989
#	170995
#	182411
#	193543
#	203409
#	215842
#	222212
#	234531
#	246868
#	257528
#	266589
#
# Disc length: 3699 seconds
#
# Revision: 0
# Processed by: cddbd v1.5.2PL0 Copyright (c) Steve Scherf et al.
# Submitted via: SynApp - FreeCDDB Version: 2.4
#
DISCID=6b0e7119
DTITLE=Os Maninhos - Lambadão Cuiabano
DYEAR=2007
DGENRE=Brasilianische Musik
TTITLE0=01 Lambada da galinha
TTITLE1=02 Vem menina
TTITLE2=03 Coxa ela
TTITLE3=04 É Gavião
TTITLE4=05 Bacana
TTITLE5=06 Sebo na canela
TTITLE6=07 Sempre assim
TTITLE7=08 Dançando Rasqueado
TTITLE8=09 Rasquebundinha
TTITLE9=10 É coisa de louco
TTITLE10=11 3 namoradas
TTITLE11=12 Os Maninhos chegou
TTITLE12=13 Dança do lambadão
TTITLE13=14 Vamos dançar forró
TTITLE14=15 Vou dançar
TTITLE15=16 Dança do Cachorrinho
TTITLE16=17 Meu coração sabe o que quer
TTITLE17=18 Fedi
TTITLE18=19 Vem dançar essa lambada
TTITLE19=20 Menina bonita
TTITLE20=21 Baile na chapada
TTITLE21=22 oh.... sol
TTITLE22=23 Moreninha do baile
TTITLE23=24 melô do negão
TTITLE24=25 oh... nenem
EXTD=
EXTT0=
EXTT1=
EXTT2=
EXTT3=
EXTT4=
EXTT5=
EXTT6=
EXTT7=
EXTT8=
EXTT9=
EXTT10=
EXTT11=
EXTT12=
EXTT13=
EXTT14=
EXTT15=
EXTT16=
EXTT17=
EXTT18=
EXTT19=
EXTT20=
EXTT21=
EXTT22=
EXTT23=
EXTT24=
PLAYORDER=
